# xmcd
#
# Track frame offsets:
#	150
#	15061
#	61786
#	79535
#	91845
#	113120
#	134264
#	154261
#	172932
#	188427
#	204758
#	217973
#	231450
#	245765
#	261535
#
# Disc length: 3624 seconds
#
# Revision: 0
# Processed by: cddbd v1.4PL0 Copyright (c) Steve Scherf et al.
# Submitted via: EasyCDDAExtractor 4.5.2.1
#
DISCID=b70e260f
DTITLE=Shirley Caesar - Halleluuah- A Collection Of Her Finest Recordings
DYEAR=1999
DGENRE=Gospel
TTITLE0=No Charge
TTITLE1=Don't Drive Your Mama Away
TTITLE2=A Man Called King Heroin
TTITLE3=Oh Mary Don't You Weep
TTITLE4=A Message To The Nation
TTITLE5=I'm Getting Ready
TTITLE6='Till I Die
TTITLE7=Jordan River
TTITLE8=Loose That Man
TTITLE9=Satan, We're Gonna Tear Your Kingdom Down
TTITLE10=My Testimony
TTITLE11=Packing Up And Getting Ready To Go
TTITLE12=At The Cross
TTITLE13=Don't Be Afraid
TTITLE14=Little Boy, How Old Are You?
EXTD=
EXTT0=
EXTT1=
EXTT2=
EXTT3=
EXTT4=
EXTT5=
EXTT6=
EXTT7=
EXTT8=
EXTT9=
EXTT10=
EXTT11=
EXTT12=
EXTT13=
EXTT14=
PLAYORDER=
